<svg preserveAspectRatio="none" width="100%" height="100%" overflow="visible" style="display: block;" viewBox="0 0 44.48 41.6" fill="none" xmlns="http://www.w3.org/2000/svg">
<g id="Group 1">
<path id="Vector" d="M15.8115 0.053974C15.8055 0.0859593 15.6656 0.887589 15.4997 1.83915C15.3358 2.79071 15.1939 3.58035 15.1859 3.59434C15.1759 3.60833 15.04 3.67231 14.88 3.73628C11.7837 4.9857 8.99523 7.06474 6.91236 9.67553C4.75353 12.3823 3.34029 15.6088 2.83657 18.9712C2.80858 19.1632 2.7746 19.3431 2.76461 19.3691C2.72463 19.467 2.64467 20.2347 2.60669 20.8984C2.58071 21.3581 2.58071 22.5136 2.60669 22.9994C2.63068 23.4352 2.66866 23.843 2.73063 24.3648L2.7746 24.7326L2.69465 24.8066C2.52873 24.9625 2.30686 25.1664 2.08697 25.3683C1.96104 25.4842 1.79513 25.6362 1.71717 25.7081C1.54927 25.8661 1.51928 25.8921 0.673741 26.6757C0.307939 27.0115 0.00610248 27.2954 0.000105729 27.3054C-0.00589102 27.3134 0.243974 27.7612 0.553806 28.2989C0.863638 28.8367 2.31485 31.3475 3.77606 33.8784C5.23727 36.4112 6.44261 38.4822 6.45461 38.4822C6.4666 38.4822 6.62451 38.4283 6.80642 38.3603C6.98632 38.2943 7.37811 38.1504 7.67395 38.0424C9.43299 37.3987 9.86476 37.2428 9.88075 37.2428C9.89274 37.2428 9.95271 37.2868 10.0187 37.3408C10.3845 37.6466 11.282 38.2783 11.8717 38.6462C12.8711 39.2699 14.1724 39.9056 15.3898 40.3614C18.2962 41.4509 21.5124 41.8347 24.5948 41.4609C26.2399 41.261 27.901 40.8452 29.3822 40.2614C29.5801 40.1835 29.76 40.1175 29.782 40.1135C29.8899 40.0955 30.5296 39.8036 31.1612 39.4858C32.1867 38.966 33.0842 38.4103 34.0257 37.7086L34.4115 37.4227L34.5154 37.4547C34.5734 37.4727 34.6473 37.4947 34.6793 37.5067C34.7733 37.5367 35.6848 37.8206 35.8187 37.8605C36.0506 37.9305 37.118 38.2643 37.168 38.2823C37.1959 38.2923 37.3119 38.3283 37.4278 38.3623C37.5438 38.3983 37.7217 38.4523 37.8236 38.4862C37.9255 38.5182 38.0175 38.5422 38.0275 38.5382C38.0515 38.5302 44.488 27.3854 44.48 27.3674C44.474 27.3534 44.0902 27.0295 42.4851 25.6921C42.0833 25.3563 41.7395 25.0664 41.7175 25.0484C41.6815 25.0125 41.6815 25.0065 41.7215 24.7146C41.9434 23.1513 41.9694 21.604 41.8034 19.9708C41.4196 16.1945 39.9724 12.6522 37.5957 9.67154C36.0726 7.76042 34.1476 6.11318 32.0108 4.89174C31.3411 4.50992 30.4096 4.05213 29.738 3.77826C29.646 3.74227 29.5681 3.69629 29.5641 3.6803C29.5581 3.66231 29.3722 2.84269 29.1523 1.85914C28.9304 0.875594 28.7445 0.0539746 28.7405 0.0339838C28.7305 0.00199853 28.4047 -5.96046e-07 22.276 -5.96046e-07H15.8235L15.8115 0.053974ZM27.6611 1.0735C27.6771 1.12748 28.1309 3.07058 28.2928 3.77826C28.3707 4.1241 28.4427 4.43395 28.4507 4.46794C28.4647 4.52391 28.4867 4.53591 28.8445 4.67384C29.632 4.9777 30.5715 5.4135 31.2212 5.77733C33.34 6.96079 35.165 8.50008 36.6582 10.3552C38.985 13.2479 40.3822 16.7563 40.684 20.4606C40.75 21.2622 40.762 22.6835 40.706 23.3492C40.6541 23.9889 40.5561 24.7386 40.4422 25.3743L40.4182 25.5082L40.5061 25.5942C40.5561 25.6402 40.6781 25.7461 40.776 25.8281C40.8759 25.91 40.9659 25.988 40.9799 26C40.9919 26.012 41.0938 26.098 41.2078 26.1899C41.3197 26.2819 41.4976 26.4298 41.6036 26.5178C41.7095 26.6077 42.0513 26.8936 42.3651 27.1555C43.1287 27.7952 43.0748 27.7452 43.0508 27.7852C43.0408 27.8032 41.8274 29.9022 40.3582 32.449C38.7511 35.2337 37.6717 37.0829 37.6557 37.0829C37.6397 37.0829 37.4798 37.0389 37.3019 36.9849C37.124 36.931 36.9461 36.877 36.9081 36.867C36.8241 36.845 36.0106 36.5991 35.8387 36.5451C35.7727 36.5232 35.6388 36.4832 35.5388 36.4532C35.4409 36.4232 35.3409 36.3912 35.319 36.3832C35.297 36.3732 35.239 36.3552 35.189 36.3432C35.1391 36.3312 35.0811 36.3132 35.0591 36.3033C35.0371 36.2933 34.9572 36.2673 34.8792 36.2473C34.8032 36.2253 34.6293 36.1733 34.4954 36.1333C34.2535 36.0594 34.2515 36.0594 34.2016 36.0953C34.1756 36.1173 34.0237 36.2373 33.8657 36.3652C33.382 36.757 32.4885 37.4027 32.4325 37.4027C32.4225 37.4027 32.3326 37.4547 32.2366 37.5167C31.3031 38.1184 30.1398 38.7141 29.0743 39.1359C27.2713 39.8496 25.4823 40.2534 23.4454 40.4054C22.9996 40.4373 21.5124 40.4373 21.0667 40.4054C18.4621 40.2114 16.1713 39.5857 13.9405 38.4603C12.7852 37.8785 11.5778 37.1029 10.6723 36.3632C10.5964 36.2993 10.5224 36.2453 10.5084 36.2413C10.4964 36.2373 10.3985 36.1573 10.2925 36.0654L10.0986 35.8994L10.0047 35.9194C9.91473 35.9394 9.7848 35.9834 9.14315 36.2233C8.96125 36.2913 8.52149 36.4532 8.16368 36.5831C7.80587 36.7131 7.36611 36.875 7.18421 36.941C7.00431 37.0089 6.84639 37.0629 6.8344 37.0629C6.82241 37.0629 5.60107 34.9619 4.11787 32.3931L1.42134 27.7232L1.4893 27.6632C1.52728 27.6293 1.70518 27.4613 1.88708 27.2894C2.06898 27.1195 2.27487 26.9236 2.34683 26.8576C2.41879 26.7896 2.56272 26.6537 2.66666 26.5538C2.7706 26.4538 2.90453 26.3299 2.9645 26.2759C3.02447 26.2219 3.10642 26.1459 3.1484 26.108C3.28433 25.98 3.67012 25.6182 3.72409 25.5702C3.75207 25.5442 3.83603 25.4663 3.90799 25.3963L4.04191 25.2683L4.01393 25.1244C3.91398 24.6046 3.80404 23.6571 3.79605 23.2693C3.79405 23.1093 3.78405 22.6775 3.77606 22.3097C3.75207 21.2442 3.81604 20.2327 3.97595 19.1811C4.75553 14.0415 7.65596 9.47163 11.9716 6.58696C13.2329 5.74135 14.6482 5.02768 16.0094 4.5479C16.2393 4.46594 16.2493 4.45994 16.2653 4.39597C16.2853 4.31601 16.4152 3.58634 16.6611 2.169C16.761 1.59726 16.847 1.10949 16.853 1.0835L16.863 1.03952H22.256C27.3773 1.03952 27.6511 1.04152 27.6611 1.0735Z" fill="var(--fill-0, white)"/>
<path id="Vector_2" d="M21.4565 7.94433V8.97385L21.3725 8.98385C21.3245 8.98785 21.0987 9.01184 20.8688 9.03583C18.8419 9.23773 16.785 9.98339 15.038 11.1469C13.6407 12.0764 12.3834 13.3338 11.4539 14.7312C10.8262 15.6728 10.2725 16.8062 9.92473 17.8638C8.95725 20.7944 9.0552 23.9409 10.2026 26.7996C10.2825 26.9975 10.4225 27.3134 10.5144 27.5053C10.6064 27.6972 10.6823 27.8591 10.6823 27.8671C10.6823 27.8751 10.2426 28.135 9.70285 28.4469C9.16514 28.7567 8.71138 29.0206 8.69339 29.0346C8.66741 29.0526 8.71738 29.1505 9.0572 29.7403C9.27508 30.1181 9.45898 30.426 9.46497 30.426C9.47297 30.426 9.93072 30.1661 10.4824 29.8462C11.0341 29.5264 11.4919 29.2665 11.5019 29.2665C11.5099 29.2665 11.5998 29.3824 11.6998 29.5244C12.5793 30.7598 13.7586 31.9013 15.038 32.7529C15.9794 33.3806 17.1128 33.9343 18.1703 34.2822C20.8388 35.1638 23.6733 35.1638 26.3418 34.2822C27.3993 33.9343 28.5326 33.3806 29.4741 32.7529C30.7694 31.8913 31.9248 30.7698 32.8383 29.4864C32.9562 29.3205 33.0562 29.1865 33.0622 29.1865C33.0662 29.1865 33.5139 29.4424 34.0556 29.7543C34.5953 30.0681 35.0531 30.33 35.0711 30.336C35.0951 30.346 35.189 30.1981 35.4969 29.6643C35.8527 29.0506 35.8886 28.9766 35.8587 28.9546C35.8407 28.9406 35.3849 28.6768 34.8472 28.3669C34.3095 28.0551 33.8697 27.7952 33.8697 27.7872C33.8697 27.7792 33.9357 27.6352 34.0177 27.4653C35.1251 25.1544 35.5069 22.3717 35.0671 19.7909C34.7613 17.9897 34.0716 16.2505 33.0582 14.7312C32.2566 13.5258 31.2252 12.4383 30.0518 11.5567C29.4002 11.0689 28.8165 10.7091 28.0529 10.3272C26.6397 9.62156 25.1525 9.18576 23.6433 9.03583C23.4134 9.01184 23.1875 8.98785 23.1416 8.98385L23.0556 8.97385V7.94433V6.9168H22.256H21.4565V7.94433ZM21.4565 13.6937V16.0126H20.545C20.0153 16.0126 19.6375 16.0206 19.6415 16.0306C19.6614 16.0886 22.288 21.1702 22.296 21.1702C22.304 21.1702 24.9286 16.0886 24.9506 16.0306C24.9546 16.0206 24.5568 16.0126 24.0071 16.0126H23.0556V13.6937V11.3747H23.1456C23.4274 11.3747 24.2689 11.5147 24.8366 11.6566C25.6002 11.8465 26.2039 12.0704 26.9435 12.4343C27.7511 12.8321 28.4007 13.2539 29.1023 13.8356C29.4082 14.0875 30.1937 14.8871 30.4576 15.211C30.8474 15.6928 31.2092 16.2205 31.507 16.7443C31.6669 17.0261 31.9948 17.7098 32.1187 18.0257C33.0382 20.3486 33.1142 22.9294 32.3306 25.2843C32.1527 25.8201 31.8328 26.5877 31.7869 26.5877C31.7629 26.5877 28.0929 24.4727 28.0549 24.4367C28.0309 24.4167 28.0969 24.2888 28.4687 23.6451C28.7125 23.2233 28.9124 22.8714 28.9124 22.8594C28.9124 22.8395 28.9264 22.8395 28.4527 22.8195C28.2608 22.8115 28.0889 22.8035 28.0729 22.7995C28.0569 22.7975 27.877 22.7875 27.6731 22.7815C27.4692 22.7735 27.2593 22.7635 27.2034 22.7595C27.1494 22.7555 26.9695 22.7455 26.8036 22.7395C26.6397 22.7335 26.4638 22.7235 26.4138 22.7195C26.3638 22.7155 26.1659 22.7055 25.974 22.6975C25.7821 22.6915 25.5942 22.6835 25.5582 22.6795C25.5223 22.6775 25.3384 22.6675 25.1485 22.6595C24.9606 22.6515 24.7727 22.6435 24.7347 22.6396C24.6967 22.6356 24.4948 22.6276 24.2849 22.6196C24.0771 22.6116 23.8912 22.6036 23.8752 22.5996C23.7992 22.5856 23.1356 22.5656 23.1356 22.5776C23.1356 22.5856 23.7033 23.4752 24.3989 24.5547C25.0925 25.6342 25.7961 26.7277 25.962 26.9835C26.2319 27.4034 26.2639 27.4473 26.2879 27.4153C26.3018 27.3954 26.5177 27.0255 26.7676 26.5937L27.2213 25.8081L27.2813 25.8441C27.3153 25.8641 28.1588 26.3518 29.1583 26.9276C30.1558 27.5033 30.9713 27.9831 30.9713 27.9931C30.9713 28.0231 30.6755 28.4209 30.4336 28.7167C30.1877 29.0186 29.3922 29.8242 29.1023 30.0641C28.6626 30.43 28.1768 30.7738 27.6931 31.0657C27.3553 31.2716 26.5537 31.6654 26.1799 31.8133C23.6493 32.8129 20.8628 32.8129 18.3322 31.8133C17.9584 31.6654 17.1568 31.2716 16.819 31.0657C16.3352 30.7738 15.8455 30.428 15.4098 30.0641C15.1259 29.8282 14.3643 29.0626 14.1205 28.7667C13.8926 28.4929 13.5727 28.069 13.5827 28.0571C13.5867 28.0531 14.4043 27.5813 15.3998 27.0075C16.3952 26.4338 17.2368 25.946 17.2727 25.926L17.3347 25.8881L17.7705 26.6417C18.0103 27.0575 18.2162 27.4133 18.2302 27.4333C18.2502 27.4653 18.2682 27.4453 18.3761 27.2734C18.4441 27.1655 18.622 26.8876 18.7719 26.6577C18.9198 26.4258 19.1437 26.08 19.2677 25.8881C19.4795 25.5562 20.1672 24.4867 20.3471 24.2088C20.3931 24.1369 20.5949 23.823 20.7968 23.5091C20.9987 23.1953 21.2106 22.8654 21.2686 22.7755C21.3285 22.6835 21.3765 22.5996 21.3765 22.5876C21.3765 22.5736 21.3285 22.5696 21.2226 22.5776C21.1366 22.5836 20.9448 22.5936 20.7968 22.5996C20.6489 22.6056 20.459 22.6136 20.3771 22.6196C20.2151 22.6296 19.9353 22.6435 19.5375 22.6595C19.3996 22.6655 19.2197 22.6735 19.1377 22.6795C19.0558 22.6855 18.8759 22.6935 18.7379 22.6995C18.4841 22.7095 18.2542 22.7215 17.9044 22.7395C17.7965 22.7455 17.5106 22.7595 17.2687 22.7695C17.0269 22.7795 16.741 22.7935 16.6351 22.7995C16.5271 22.8055 16.3512 22.8135 16.2453 22.8195C15.7596 22.8435 15.5996 22.8555 15.5996 22.8674C15.5996 22.8734 15.8095 23.2453 16.0674 23.6891L16.5351 24.4987L16.4812 24.5307C16.3073 24.6406 12.7812 26.6677 12.7652 26.6677C12.7412 26.6677 12.5553 26.2719 12.4114 25.916C11.8297 24.4807 11.5638 22.8395 11.6618 21.3002C11.7757 19.525 12.3174 17.8378 13.2569 16.3225C13.4628 15.9906 13.7766 15.5548 14.0545 15.211C14.3183 14.8871 15.1039 14.0875 15.4098 13.8356C16.1114 13.2539 16.761 12.8321 17.5686 12.4343C18.3082 12.0704 18.9119 11.8465 19.6754 11.6566C20.2511 11.5127 21.0327 11.3807 21.3425 11.3767L21.4565 11.3747V13.6937Z" fill="var(--fill-0, white)"/>
</g>
</svg>
